<svg width="72" height="72" viewBox="0 0 72 72" fill="none" xmlns="http://www.w3.org/2000/svg">
<rect x="0.977304" y="1.13777" width="69.5955" height="69.5955" rx="34.7977" fill="white"/>
<rect x="0.977304" y="1.13777" width="69.5955" height="69.5955" rx="34.7977" stroke="#FF6B00" stroke-width="1.17958" stroke-dasharray="5.9 5.9"/>
<g clip-path="url(#clip0_482_2038)">
<path d="M33.544 28.7511L52.2893 29.6829L48.2098 49.2975C47.817 51.2072 46.2859 52.5302 44.5635 52.4496L28.7796 51.6673L33.544 28.7511Z" fill="url(#paint0_linear_482_2038)"/>
<path d="M33.5439 28.7511L23.7734 19.4213L39.7991 20.2151C41.5618 20.3071 43.254 21.0549 44.6037 22.3433L52.2892 29.683L33.5439 28.7511Z" fill="url(#paint1_linear_482_2038)"/>
<path d="M28.7892 51.6673L20.0461 43.3153C19.4116 42.7056 19.1295 41.7508 19.3209 40.8304L23.773 19.4213L33.5536 28.7511L28.7892 51.6673Z" fill="url(#paint2_linear_482_2038)"/>
<g style="mix-blend-mode:hue" opacity="0.6">
<circle cx="34.9999" cy="36.9349" r="25" fill="#FF6B00"/>
</g>
</g>
<defs>
<linearGradient id="paint0_linear_482_2038" x1="28.7796" y1="40.6021" x2="52.2893" y2="40.6021" gradientUnits="userSpaceOnUse">
<stop stop-color="#7B61FF"/>
<stop offset="1" stop-color="#12D8C5"/>
</linearGradient>
<linearGradient id="paint1_linear_482_2038" x1="23.7734" y1="24.5521" x2="52.2892" y2="24.5521" gradientUnits="userSpaceOnUse">
<stop stop-color="#7B61FF"/>
<stop offset="1" stop-color="#12D8C5"/>
</linearGradient>
<linearGradient id="paint2_linear_482_2038" x1="19.2618" y1="35.5443" x2="33.5536" y2="35.5443" gradientUnits="userSpaceOnUse">
<stop stop-color="#7B61FF"/>
<stop offset="1" stop-color="#12D8C5"/>
</linearGradient>
<clipPath id="clip0_482_2038">
<rect width="33.0284" height="33.0284" fill="white" transform="translate(19.2609 19.4213)"/>
</clipPath>
</defs>
</svg>
